<?xml version="1.0" standalone="no"?>
<!DOCTYPE svg PUBLIC "-//W3C//DTD SVG 20010904//EN"
 "http://www.w3.org/TR/2001/REC-SVG-20010904/DTD/svg10.dtd">
<svg version="1.0" xmlns="http://www.w3.org/2000/svg"
 width="300.000000pt" height="336.000000pt" viewBox="0 0 300.000000 336.000000"
 preserveAspectRatio="xMidYMid meet">
<metadata>
Created by potrace 1.10, written by Peter Selinger 2001-2011
</metadata>
<g transform="translate(0.000000,336.000000) scale(0.050000,-0.050000)"
fill="#ff0033" stroke="none">
<path d="M2737 6333 c-117 -47 -251 -110 -298 -141 l-85 -56 12 61 c18 90 -19
97 -103 18 -110 -104 -165 -135 -216 -123 -105 27 -263 -66 -328 -194 l-40
-78 -137 13 -137 12 -177 -160 c-296 -267 -418 -405 -458 -515 -29 -80 -81
-144 -260 -320 -321 -314 -372 -422 -451 -956 l-42 -288 62 -124 c141 -278
227 -619 162 -636 -96 -25 -60 -187 147 -663 103 -238 203 -479 221 -535 22
-70 47 -109 81 -124 28 -13 54 -46 61 -78 81 -370 199 -492 495 -510 131 -9
168 -19 240 -70 98 -69 195 -106 281 -106 57 0 329 -128 500 -235 43 -27 95
-44 115 -39 29 8 38 -1 38 -35 0 -43 4 -44 105 -28 146 24 588 23 696 -1 49
-11 139 -19 199 -17 83 1 136 -11 214 -52 124 -63 166 -67 166 -15 0 40 60 68
202 93 65 11 77 6 117 -49 54 -76 99 -82 86 -12 -14 71 27 110 115 110 69 0
74 4 65 50 -10 50 121 216 248 316 l50 39 58 -56 c75 -72 80 -26 9 79 -63 93
-65 86 29 114 65 20 86 19 114 -4 30 -24 33 -24 22 5 -18 47 23 77 107 77 81
0 108 22 129 108 8 32 70 127 137 210 167 206 472 761 472 857 0 24 -182 -164
-224 -232 -30 -48 -52 -63 -79 -56 -31 8 -41 -4 -52 -54 -11 -55 -14 -57 -24
-20 -10 39 -42 20 -341 -206 -637 -481 -880 -623 -913 -537 -9 25 -19 24 -61
-10 -53 -41 -86 -37 -86 11 0 41 -94 37 -119 -6 -17 -29 -23 -30 -38 -7 -15
21 -21 18 -32 -16 -8 -23 -22 -37 -33 -31 -10 6 -24 -3 -31 -21 -10 -26 -23
-20 -70 34 -51 59 -55 61 -39 16 18 -53 18 -53 -88 -160 -47 -46 -78 -60 -140
-60 -44 0 -131 -13 -194 -28 -63 -14 -118 -24 -121 -21 -16 17 -430 89 -615
109 -239 25 -385 62 -526 133 l-98 50 45 48 c58 61 43 79 -33 39 -97 -50 -104
-45 -631 475 l-512 505 -89 220 c-78 190 -96 219 -132 214 -31 -5 -46 7 -55
44 -16 61 5 99 45 83 23 -9 28 -1 20 34 -53 221 -60 436 -18 530 31 70 53 197
84 484 22 214 55 444 72 510 202 793 1372 1688 2254 1726 185 7 265 18 285 39
33 33 41 216 8 196 -11 -7 -62 15 -113 48 -112 75 -73 78 -329 -25z m-2283
-1910 c-44 -17 -48 -42 -11 -65 15 -10 17 -18 5 -18 -12 0 -20 -20 -17 -45 2
-25 -1 -53 -7 -63 -11 -19 -22 -119 -32 -282 -8 -125 -6 -120 -45 -87 -32 25
-32 24 -1 -24 21 -32 29 -71 21 -110 -10 -54 -15 -89 -24 -195 -2 -20 -12 -31
-23 -24 -11 7 -14 -1 -8 -19 7 -17 6 -31 -3 -31 -19 0 -108 104 -111 130 -11
100 -6 159 15 180 18 18 19 30 2 47 -13 13 -14 23 -4 23 17 0 29 59 35 175 1
25 9 45 17 45 8 0 11 17 7 39 -10 55 32 182 57 167 12 -8 15 1 7 21 -7 18 -3
33 8 33 11 0 15 8 9 18 -6 9 3 29 19 42 16 13 26 31 21 38 -4 7 16 15 45 16
41 3 45 0 18 -11z m124 -2028 c22 -52 32 -95 22 -95 -29 0 -80 85 -80 133 0
25 -9 50 -20 57 -11 7 -20 23 -20 35 0 43 56 -32 98 -130z m-121 65 c12 -33
16 -60 10 -60 -20 0 -83 90 -74 105 19 31 44 13 64 -45z m323 -582 c0 -11 8
-15 18 -9 9 6 22 -8 28 -31 8 -28 20 -37 38 -26 17 11 16 3 -4 -22 -16 -21
-20 -32 -8 -25 27 17 108 -56 108 -97 0 -17 9 -25 20 -18 11 7 20 -3 20 -23 0
-26 6 -29 22 -13 17 17 36 9 73 -31 27 -29 58 -51 67 -48 10 3 18 -9 18 -25 0
-17 9 -30 20 -30 26 0 100 -74 100 -100 0 -11 9 -20 19 -20 25 0 151 -126 167
-166 6 -17 32 -34 58 -38 25 -4 44 -18 41 -31 -3 -14 8 -25 25 -25 16 0 30
-10 30 -21 0 -12 7 -17 16 -12 9 6 26 4 39 -4 26 -16 11 -103 -19 -103 -10 0
-13 8 -7 19 6 10 3 24 -9 31 -11 7 -20 2 -20 -10 0 -13 -13 -10 -31 9 -18 17
-45 31 -60 31 -16 0 -29 9 -29 19 0 11 -15 14 -33 7 -24 -9 -29 -6 -17 14 12
20 5 23 -27 15 -24 -6 -43 -3 -43 6 0 10 -27 15 -60 11 -33 -4 -60 1 -60 10 0
10 -27 14 -61 10 -37 -4 -78 7 -107 30 -26 20 -52 31 -59 24 -12 -12 -22 42
-15 81 2 10 -10 13 -27 6 -21 -8 -31 0 -31 23 0 19 -14 60 -30 91 -17 32 -30
74 -30 93 0 20 -13 41 -30 47 -16 7 -30 30 -30 53 0 23 -12 46 -28 52 -15 6
-33 38 -40 71 -6 33 -19 55 -28 49 -10 -5 -15 10 -13 34 2 24 -8 64 -23 88
-38 61 -35 71 12 46 22 -12 40 -31 40 -42z m4314 -397 c-10 -66 -98 -103 -128
-55 -7 11 -3 15 7 8 11 -7 42 9 68 36 60 59 60 59 53 11z m-74 -105 c0 -46
-181 -168 -209 -141 -7 8 -22 1 -32 -16 -11 -18 -19 -20 -19 -5 0 13 9 29 20
36 12 7 15 22 8 33 -6 11 7 25 30 31 23 6 42 20 42 32 0 11 6 15 12 8 7 -7 25
0 41 16 29 29 107 33 107 6z m-412 -241 c10 -20 14 -20 24 0 6 14 21 25 33 25
12 0 5 -18 -15 -40 -20 -22 -54 -40 -75 -40 -26 0 -36 -10 -28 -29 6 -17 -11
-47 -43 -72 -30 -23 -43 -36 -29 -29 40 20 29 -18 -14 -44 -30 -19 -40 -19
-48 0 -5 13 -11 7 -11 -14 -1 -20 -21 -54 -45 -75 -24 -20 -53 -56 -65 -80
-12 -23 -27 -39 -33 -35 -7 5 -34 -15 -60 -43 -50 -52 -153 -79 -126 -33 11
19 8 19 -15 0 -16 -13 -54 -21 -84 -17 -29 3 -54 0 -54 -8 0 -18 -168 -61
-240 -61 -33 0 -60 7 -60 16 0 8 -70 18 -155 21 -85 3 -164 13 -175 21 -11 8
-39 13 -63 11 -32 -3 -40 5 -32 29 10 25 7 27 -16 10 -39 -30 -95 -27 -91 5 6
41 28 54 97 59 36 2 65 6 65 8 0 2 27 6 60 10 106 11 321 95 333 129 4 12 32
23 62 25 30 3 55 13 55 23 0 9 14 12 30 6 18 -7 30 0 30 18 0 31 10 32 275 35
98 1 165 10 165 22 0 11 10 10 24 -4 13 -13 33 -24 45 -24 12 0 8 9 -7 18 -29
19 65 82 122 82 15 0 37 18 51 39 16 26 37 35 58 27 23 -9 29 -5 19 11 -8 12
-6 23 5 23 11 0 25 -11 31 -25z m-2268 -328 c183 -7 268 -21 276 -44 4 -12 21
-23 37 -23 16 0 24 8 18 18 -13 21 54 18 70 -3 7 -9 45 -17 85 -19 41 -1 74
-12 74 -24 0 -12 9 -9 19 7 16 25 21 24 33 -6 9 -24 18 -29 27 -14 22 35 72 5
76 -44 2 -25 -3 -36 -11 -25 -19 27 -110 36 -94 10 7 -11 3 -20 -9 -20 -11 0
-21 11 -21 25 -1 17 -7 15 -20 -5 -18 -27 -22 -27 -40 0 -13 20 -19 22 -20 5
0 -14 -10 -25 -21 -25 -12 0 -16 9 -9 20 7 11 3 20 -9 20 -11 0 -21 -7 -21
-16 0 -22 -267 -25 -281 -3 -6 10 -46 22 -89 27 -44 6 -83 20 -86 31 -4 12
-21 21 -37 21 -16 0 -24 8 -18 19 6 10 -7 24 -29 31 -22 7 -40 20 -40 28 0 25
26 44 39 27 6 -8 52 -17 101 -18z"/>
<path d="M3763 6185 c-18 -33 -37 -38 -122 -30 -134 13 -201 -28 -201 -124 0
-117 216 -251 405 -251 95 0 341 -151 888 -543 341 -243 312 -231 412 -177
l75 40 0 -86 c0 -159 72 -325 182 -418 113 -95 147 -181 118 -305 -22 -98 42
-232 173 -365 46 -46 87 -105 90 -130 5 -32 20 -46 48 -45 38 1 40 -6 26 -90
-20 -124 -20 -285 1 -318 10 -16 22 36 31 139 8 90 32 232 53 315 42 164 39
193 -13 115 -54 -84 -69 -62 -69 106 0 87 -14 269 -32 405 l-31 247 -304 488
c-410 661 -584 825 -1047 988 -233 82 -648 106 -683 39z m531 -193 c57 -15
109 -22 116 -15 7 6 19 0 28 -14 9 -14 42 -29 73 -32 31 -4 73 -26 92 -50 19
-23 42 -42 51 -42 42 2 85 -24 73 -44 -7 -11 -4 -16 6 -9 24 15 132 -54 114
-73 -8 -7 -2 -13 12 -13 34 0 241 -215 241 -251 0 -16 9 -29 20 -29 11 0 20
-17 20 -38 0 -21 14 -43 31 -50 17 -6 26 -20 20 -30 -6 -10 0 -23 14 -29 14
-5 -32 -11 -101 -11 -73 -1 -122 6 -115 17 6 10 -9 21 -34 25 -25 4 -43 18
-40 31 2 13 -7 19 -20 14 -14 -5 -53 15 -86 46 -34 30 -86 68 -116 84 -31 16
-50 40 -44 55 6 15 -5 26 -25 26 -19 1 -56 18 -84 40 -27 22 -61 39 -75 40
-14 0 -25 9 -25 20 0 11 -14 20 -31 20 -17 0 -26 8 -20 19 6 10 -9 21 -34 25
-25 4 -43 17 -41 29 2 12 -31 32 -75 45 -43 13 -79 32 -79 43 0 10 -19 19 -42
19 -28 0 -49 20 -64 59 -19 52 -24 55 -47 25 -16 -22 -26 -25 -26 -9 -1 14
-14 25 -31 25 -31 0 -40 24 -17 47 24 23 253 14 361 -15z"/>
<path d="M3690 5020 c-66 -9 -411 -17 -766 -18 -498 -2 -647 -8 -652 -27 -21
-75 -279 -2625 -287 -2837 -10 -258 7 -367 68 -428 32 -32 468 -46 466 -15 -1
34 126 1417 133 1440 5 18 66 25 216 25 408 0 792 159 792 329 0 84 -39 96
-250 72 -105 -12 -313 -27 -461 -34 l-269 -13 10 58 c16 88 90 863 90 946 1
122 -2 121 387 61 581 -91 633 -93 708 -30 84 70 149 245 141 379 l-6 102
-100 2 c-55 2 -154 -4 -220 -12z m-1010 -220 c-26 -17 -25 -19 4 -20 23 0 31
-11 23 -30 -6 -16 -21 -24 -34 -16 -16 9 -15 4 1 -16 19 -24 17 -34 -13 -53
-26 -16 -34 -37 -26 -67 8 -33 5 -40 -15 -28 -20 12 -23 5 -15 -27 6 -24 4
-43 -6 -43 -9 0 -13 -18 -9 -40 4 -22 -3 -40 -16 -40 -16 -1 -17 -5 -3 -15 12
-8 20 -37 17 -65 -27 -292 -33 -326 -58 -345 -12 -9 -11 -15 4 -15 14 0 20
-13 13 -30 -17 -45 -19 -410 -2 -410 8 0 13 -8 10 -18 -3 -10 19 -39 48 -65
71 -62 86 -157 26 -157 -19 0 -26 -9 -17 -23 10 -16 4 -20 -20 -11 -19 8 -29
5 -23 -5 6 -10 -20 -51 -58 -91 -38 -41 -56 -69 -41 -63 23 9 24 1 6 -43 -12
-30 -20 -83 -18 -118 2 -42 -9 -70 -32 -84 -34 -20 -34 -21 0 -21 24 -1 31
-10 21 -26 -9 -14 -17 -70 -19 -125 -6 -196 -26 -370 -47 -408 -15 -28 -14
-41 4 -49 17 -7 18 -16 5 -26 -12 -10 -22 -66 -24 -126 -2 -80 -13 -117 -40
-138 -31 -24 -31 -27 -2 -17 24 8 31 3 23 -16 -14 -37 -76 -56 -127 -40 -43
14 -55 50 -16 50 13 0 7 12 -13 27 -23 16 -33 40 -25 59 7 18 3 38 -8 45 -12
8 -13 21 -1 36 14 18 17 91 5 128 -6 18 5 34 21 30 10 -3 8 14 -4 37 -16 30
-17 57 -3 88 11 24 18 72 16 107 -2 35 5 64 17 65 11 0 10 6 -4 11 -18 7 -19
21 -4 48 11 21 16 61 11 88 -5 28 -2 55 8 61 9 5 12 28 6 50 -7 28 -1 40 22
40 17 0 32 10 32 21 0 12 -8 16 -18 10 -9 -6 -29 3 -42 19 -19 23 -19 30 -1
30 13 0 18 9 11 20 -7 11 2 26 19 32 19 8 26 22 16 35 -9 13 -13 46 -10 73 3
28 10 104 16 170 5 66 12 145 14 176 3 30 19 64 35 74 17 11 20 20 7 20 -22 0
-24 95 -3 132 6 10 10 45 8 78 -2 33 6 72 16 87 13 17 11 31 -6 42 -17 11 -19
20 -5 29 11 7 17 31 13 52 -6 33 4 40 56 43 l64 2 -70 15 c-38 8 -56 16 -40
18 27 2 27 5 0 22 -16 11 -21 20 -9 20 11 0 23 43 26 95 2 52 6 120 8 150 2
30 13 55 24 55 12 0 8 9 -9 20 -16 11 -20 20 -7 20 14 0 20 37 16 105 -3 57 3
115 14 128 11 13 17 36 15 51 -7 42 24 96 54 96 15 0 28 9 28 20 0 11 43 20
95 20 69 -1 87 -6 65 -20z m1040 0 c0 -11 18 -20 40 -20 38 0 38 -2 5 -35 -41
-41 -125 -54 -125 -19 0 14 -8 12 -20 -6 -18 -27 -22 -27 -40 0 -14 22 -19 23
-20 4 0 -15 -9 -21 -20 -14 -12 7 -16 21 -10 31 6 9 -63 20 -154 24 l-166 7
210 6 c141 4 194 11 160 22 -41 13 -32 16 45 18 52 1 95 -7 95 -18z"/>
</g>
</svg>
